<?xml version="1.0" encoding="UTF-8" standalone="no"?>
<!-- Created with Inkscape (http://www.inkscape.org/) -->

<svg
   version="1.1"
   id="svg1"
   width="160"
   height="20.799999"
   viewBox="0 0 160 20.799999"
   sodipodi:docname="submit_group.svg"
   inkscape:version="1.3.1 (9b9bdc1480, 2023-11-25, custom)"
   xmlns:inkscape="http://www.inkscape.org/namespaces/inkscape"
   xmlns:sodipodi="http://sodipodi.sourceforge.net/DTD/sodipodi-0.dtd"
   xmlns="http://www.w3.org/2000/svg"
   xmlns:svg="http://www.w3.org/2000/svg">
  <defs
     id="defs1" />
  <sodipodi:namedview
     id="namedview1"
     pagecolor="#ffffff"
     bordercolor="#000000"
     borderopacity="0.25"
     inkscape:showpageshadow="2"
     inkscape:pageopacity="0.0"
     inkscape:pagecheckerboard="0"
     inkscape:deskcolor="#d1d1d1"
     inkscape:zoom="2.765625"
     inkscape:cx="61.107345"
     inkscape:cy="58.214689"
     inkscape:window-width="1076"
     inkscape:window-height="1896"
     inkscape:window-x="1920"
     inkscape:window-y="20"
     inkscape:window-maximized="1"
     inkscape:current-layer="g1" />
  <g
     inkscape:groupmode="layer"
     inkscape:label="Image"
     id="g1">
    <path
       id="rect3400"
       style="opacity:1;fill:#efe8e1;fill-opacity:0.97647059;stroke:none;stroke-opacity:1"
       d="M -0.23242188 0.44921875 L -0.23242188 20.261719 L 159.76562 20.261719 L 159.76562 0.44921875 L -0.23242188 0.44921875 z M 38.240234 1.9121094 C 69.556533 1.9054036 103.6666 2.0703125 132.27734 2.0703125 C 135.8382 2.0703125 138.78605 6.9587836 138.81445 10.519531 C 138.84335 14.143229 135.92264 19.222656 132.29883 19.222656 C 93.733394 19.222656 48.091253 19.115234 7.9160156 19.115234 C 4.4618288 19.115234 1.7596867 14.243223 1.7460938 10.789062 C 1.7318063 7.1582879 4.5313624 2.0084002 8.1621094 1.9882812 C 17.672878 1.9355803 27.801468 1.9143446 38.240234 1.9121094 z " />
    <text
       xml:space="preserve"
       style="font-size:8px;fill:#000000"
       x="18.916931"
       y="13.684345"
       id="text3391"><tspan
         sodipodi:role="line"
         id="tspan3391"
         x="18.916931"
         y="13.684345"
         style="font-size:8px">setacl-··············</tspan></text>
    <g
       id="g3395"
       style="opacity:0.302;stroke-width:0.8;stroke-dasharray:none"
       inkscape:label="smile">
      <ellipse
         style="fill:#000000;fill-opacity:1;stroke:none;stroke-opacity:1;stroke-width:0.8;stroke-dasharray:none"
         id="path3395"
         ry="0.50538021"
         rx="0.46702087"
         cy="9.7253704"
         cx="8.8844624" />
      <ellipse
         style="fill:#000000;fill-opacity:1;stroke:none;stroke-opacity:1;stroke-width:0.8;stroke-dasharray:none"
         id="path3395-3"
         ry="0.50538021"
         rx="0.46702087"
         cy="9.7476988"
         cx="11.070246" />
      <ellipse
         style="fill:none;stroke:#000000;stroke-opacity:1;stroke-width:0.8;stroke-dasharray:none"
         id="path3392"
         cx="10.111505"
         cy="10.799562"
         rx="4.0288553"
         ry="4.0897498" />
      <path
         style="fill:none;stroke:#000000;stroke-opacity:1;stroke-width:0.8;stroke-dasharray:none"
         d="m 8.0398018,11.458256 4.0549522,0.04905 c 0,0.775586 -0.677313,1.442918 -2.013936,1.442918 -1.2334263,0 -2.0410162,-0.680072 -2.0410162,-1.491968 z"
         id="path3396"
         sodipodi:nodetypes="cccc" />
    </g>
    <g
       id="g3398"
       style="stroke:none;stroke-opacity:1;fill:none;opacity:0.307;stroke-width:0.8;stroke-dasharray:none"
       inkscape:label="attach">
      <path
         style="fill:none;fill-opacity:1;stroke:#000000;stroke-opacity:1;opacity:1;stroke-width:0.8;stroke-dasharray:none"
         d="m 131.05961,7.7702547 c 0,0 1.79593,1.8616307 3.29822,3.4490333 0.60154,0.63562 0.22905,1.525639 -0.16597,2.014273 -0.39502,0.488634 -1.84209,1.067379 -2.48636,0.518166 -1.6336,-1.392571 -2.81226,-2.7217 -4.44529,-4.4305979 -0.39401,-0.4123205 -0.008,-1.3272981 0.39103,-1.6656515 0.39887,-0.3383534 1.08996,-0.4338468 1.4242,-0.095231 1.64546,1.6669823 2.45513,2.3582218 3.55931,3.5325654 0.18272,0.194329 0.17151,0.589929 -0.0452,0.798939 -0.21671,0.20901 -0.78911,0.276307 -1.00604,0.02048 -0.7392,-0.871758 -2.09005,-2.1404094 -2.09005,-2.1404094"
         id="path3398"
         sodipodi:nodetypes="cszsszsszsc" />
    </g>
    <g
       id="g3394"
       style="fill:#06a784;fill-opacity:1;opacity:1;stroke:none"
       inkscape:label="send">
      <path
         id="path3394"
         style="fill:#06a784;stroke:none;stroke-opacity:1;fill-opacity:1"
         d="M 149.45117 1.171875 A 8.9333172 9.3888435 0 0 0 140.51758 10.560547 A 8.9333172 9.3888435 0 0 0 149.45117 19.949219 A 8.9333172 9.3888435 0 0 0 158.38477 10.560547 A 8.9333172 9.3888435 0 0 0 149.45117 1.171875 z M 146.71875 6.8710938 L 154.06445 10.498047 L 146.71094 14.414062 L 147.03516 11.138672 L 150.23047 10.703125 L 146.95508 10.150391 L 146.71875 6.8710938 z " />
    </g>
  </g>
</svg>
