<svg xmlns="http://www.w3.org/2000/svg" xmlns:xlink="http://www.w3.org/1999/xlink" viewBox="0 0 672 432"><g fill="#0ea249"><path d="m368.4 404-1.4-.1-1.8-1-1.7-1v-5.5l9-9 9-8.9V376l-154.3-.3-154.2-.3-5.2-1.6-5.2-1.6-5.7-2.6-5.7-2.6-6.4-4.6-6.4-4.6-5.4-6.6-5.4-6.5-3.5-7.1-3.5-7.1-1.5-6.6-1.6-6.6v-19l2-7.7 1.9-7.7 3.8-7.2 3.7-7.2 8.5-8.6 8.6-8.5 7-3.6 7-3.6 5.5-1.9 5.5-1.8 136-.5 136-.6 5.5-1.8 5.5-1.9 5.5-2.7 5.5-2.8 4.6-3.9 4.7-3.8 4-5 3.9-5 2.6-5.3 2.7-5.2 1.5-5.8 1.6-5.7v-18l-1.6-6-1.6-5.9-3-5.6-3-5.6-3.7-4.5-3.7-4.5-5-4.1-5-4.1-5.3-2.6-5.2-2.7-5.8-1.6-5.7-1.7-49-.4-49-.4-1.3-1-1.2-1V116l2.4-1.6 2.4-1.6 48.8.4 48.9.4 6 1.8 6 1.7 6.1 3 6.2 2.9 6.1 4.6 6.2 4.6 5 6.1 4.8 6.1 3.5 7 3.5 7 1.7 7 1.6 7v19.1L399 198l-1.7 6.5-3.4 7-3.5 7-4.9 6.1-5 6.1-6.2 4.8-6.3 4.8-6.3 2.8-6.3 2.9-5.7 1.7-5.7 1.7-136 .5-136 .6-6.8 2.7-6.7 2.7-5.9 4-6 4-5 5.6-5 5.7-3 6.1-3 6.2-1.6 6-1.5 5.9v16.8l1.5 6.1 1.6 6.2 3.5 6.6 3.5 6.7 5.8 6 5.7 5.8 6 3.6 5.9 3.6 6.5 2.3 6.5 2.4 153 .2 153 .3 1.4-.6 1.4-.5-9.7-9.8-9.6-9.7v-5l1.2-1.2 1.2-1.2h4l15.3 15.2 15.3 15.3v5L385 388.8 369.8 404zM209 217l-1-.1-7-3.6-7-3.6-7.7-2.9-7.7-2.8-9.8-2.1-9.8-2.2-57-.6-57-.6-5.8-2.9-5.8-2.8-4.9-4.9-4.9-4.8-2.8-5.8-2.8-5.8v-124l3.1-6 3.1-6 5.2-4.9 5.1-4.8 5.7-2.7 5.8-2.6h139l6.5 3 6.5 3.1 4.6 4.7 4.7 4.7 2.6 5.3 2.6 5.4 1 6.4 1 6.4-.3 77.3-.2 77.3-2 1.4-2 1.5zm-7-15.3 2-.2v-149l-2.4-5.3-2.4-5.3-4.9-4.4-4.9-4.4-4.6-1.6L180 30H51.8l-5 1.4-5 1.5-4.1 3.6-4.3 3.6-2.7 4.7-2.7 4.7-.3 58.5-.3 58.5 1.7 4.4 1.7 4.4 4 4.4 4 4.4 4.1 2.2 4 2.2 56.6.6 56.5.6 9.5 2 9.5 2 7.9 2.7 7.8 2.6 2.6 1.5 2.7 1.4z"/><text xml:space="preserve" font-size="80" transform="translate(7 -15)"><tspan x="258" y="337"><tspan font-family="Arial" font-weight="700">WhatsApp</tspan></tspan></text><text xml:space="preserve" font-size="80" transform="translate(163 65)"><tspan x="258" y="337"><tspan font-family="Arial" font-weight="700">Watch</tspan></tspan></text></g></svg>
