<svg xmlns="http://www.w3.org/2000/svg" viewBox="0 0 160 20.8"><path fill="#efe8e1" d="M-.2.4v19.9h160V.4H-.2zM38.2 2l94 .2c3.6 0 6.6 4.9 6.6 8.4 0 3.6-2.9 8.7-6.5 8.7H7.9c-3.4 0-6.1-5-6.2-8.4C1.7 7.2 4.5 2 8.2 2h30z"/><text xml:space="preserve" x="18.9" y="13.7" font-size="8"><tspan x="18.9" y="13.7">setacl-··············</tspan></text><g stroke-width=".8" opacity=".3"><circle cx="8.9" cy="9.7" r=".5"/><circle cx="11.1" cy="9.7" r=".5"/><ellipse cx="10.1" cy="10.8" fill="none" stroke="#000" rx="4" ry="4.1"/><path fill="none" stroke="#000" d="M8 11.5h4c0 .8-.6 1.5-2 1.5-1.2 0-2-.7-2-1.5z"/></g><g opacity=".3"><path fill="none" stroke="#000" stroke-width=".8" d="m131 7.8 3.4 3.4c.6.7.2 1.5-.2 2s-1.9 1.1-2.5.6c-1.6-1.4-2.8-2.8-4.4-4.5-.4-.4 0-1.3.4-1.6.4-.4 1-.5 1.4-.1l3.5 3.5c.2.2.2.6 0 .8-.2.2-.8.3-1 0l-2.1-2.1" opacity="1"/></g><path fill="#06a784" d="M149.5 1.2a9 9.4 0 0 0-9 9.4 9 9.4 0 0 0 9 9.3 9 9.4 0 0 0 8.9-9.3 9 9.4 0 0 0-9-9.4zm-2.8 5.7 7.4 3.6-7.4 4 .3-3.4 3.2-.4-3.2-.5-.3-3.3z"/></svg>